  0
SECTION
  2
HEADER
  9
$ACADVER
  1
AC1009
  9
$FILLMODE
 70
 0
  9
$SPLFRAME
 70
 1
  9
$EXTMIN
 10
0
 20
0
 30
0.0
  9
$EXTMAX
 10
1058.33
 20
1058.33
 30
0.0
  0
ENDSEC
  0
SECTION
  2
TABLES
  0
TABLE
  2
LAYER
 70
1
  0
LAYER
  2
0
 70
     0
 62
     7
  6
CONTINUOUS
  0
ENDTAB
  0
ENDSEC
  0
SECTION
  2
ENTITIES
  0
LINE
  8
0
 62
     0
 10
0.0950846
 20
100.094
 30
0.0
 11
302.84
 21
100.094
 31
0.0
  0
LINE
  8
0
 62
     0
 10
302.84
 20
100.094
 30
0.0
 11
302.84
 21
0.23151
 31
0.0
  0
LINE
  8
0
 62
     0
 10
302.84
 20
0.23151
 30
0.0
 11
0.0950846
 21
0.23151
 31
0.0
  0
LINE
  8
0
 62
     0
 10
0.0950846
 20
0.23151
 30
0.0
 11
0.0950846
 21
100.094
 31
0.0
  0
LINE
  8
0
 62
     0
 10
240.594
 20
16.7569
 30
0.0
 11
254.744
 21
16.7569
 31
0.0
  0
LINE
  8
0
 62
     0
 10
254.744
 20
16.7569
 30
0.0
 11
254.744
 21
2.60725
 31
0.0
  0
LINE
  8
0
 62
     0
 10
254.744
 20
2.60725
 30
0.0
 11
240.594
 21
2.60725
 31
0.0
  0
LINE
  8
0
 62
     0
 10
240.594
 20
2.60725
 30
0.0
 11
240.594
 21
16.7569
 31
0.0
  0
LINE
  8
0
 62
     0
 10
259.644
 20
16.7569
 30
0.0
 11
273.794
 21
16.7569
 31
0.0
  0
LINE
  8
0
 62
     0
 10
273.794
 20
16.7569
 30
0.0
 11
273.794
 21
2.60725
 31
0.0
  0
LINE
  8
0
 62
     0
 10
273.794
 20
2.60725
 30
0.0
 11
259.644
 21
2.60725
 31
0.0
  0
LINE
  8
0
 62
     0
 10
259.644
 20
2.60725
 30
0.0
 11
259.644
 21
16.7569
 31
0.0
  0
LINE
  8
0
 62
     0
 10
278.694
 20
16.7569
 30
0.0
 11
292.844
 21
16.7569
 31
0.0
  0
LINE
  8
0
 62
     0
 10
292.844
 20
16.7569
 30
0.0
 11
292.844
 21
2.60725
 31
0.0
  0
LINE
  8
0
 62
     0
 10
292.844
 20
2.60725
 30
0.0
 11
278.694
 21
2.60725
 31
0.0
  0
LINE
  8
0
 62
     0
 10
278.694
 20
2.60725
 30
0.0
 11
278.694
 21
16.7569
 31
0.0
  0
LINE
  8
0
 62
     0
 10
164.039
 20
23.5121
 30
0.0
 11
166.496
 21
9.57735
 31
0.0
  0
LINE
  8
0
 62
     0
 10
166.496
 20
9.57735
 30
0.0
 11
180.432
 21
12.0358
 31
0.0
  0
LINE
  8
0
 62
     0
 10
180.432
 20
12.0358
 30
0.0
 11
177.975
 21
25.9705
 31
0.0
  0
LINE
  8
0
 62
     0
 10
177.975
 20
25.9705
 30
0.0
 11
164.039
 21
23.5121
 31
0.0
  0
LINE
  8
0
 62
     0
 10
86.3078
 20
12.062
 30
0.0
 11
100.244
 21
9.60356
 31
0.0
  0
LINE
  8
0
 62
     0
 10
100.244
 20
9.60356
 30
0.0
 11
102.701
 21
23.5383
 31
0.0
  0
LINE
  8
0
 62
     0
 10
102.701
 20
23.5383
 30
0.0
 11
88.7649
 21
25.9967
 31
0.0
  0
LINE
  8
0
 62
     0
 10
88.7649
 20
25.9967
 30
0.0
 11
86.3078
 21
12.062
 31
0.0
  0
LINE
  8
0
 62
     0
 10
212.019
 20
26.2819
 30
0.0
 11
226.169
 21
26.2819
 31
0.0
  0
LINE
  8
0
 62
     0
 10
226.169
 20
26.2819
 30
0.0
 11
226.169
 21
12.1322
 31
0.0
  0
LINE
  8
0
 62
     0
 10
226.169
 20
12.1322
 30
0.0
 11
212.019
 21
12.1322
 31
0.0
  0
LINE
  8
0
 62
     0
 10
212.019
 20
12.1322
 30
0.0
 11
212.019
 21
26.2819
 31
0.0
  0
LINE
  8
0
 62
     0
 10
182.8
 20
26.8207
 30
0.0
 11
185.258
 21
12.886
 31
0.0
  0
LINE
  8
0
 62
     0
 10
185.258
 20
12.886
 30
0.0
 11
199.193
 21
15.3431
 31
0.0
  0
LINE
  8
0
 62
     0
 10
199.193
 20
15.3431
 30
0.0
 11
196.734
 21
29.2778
 31
0.0
  0
LINE
  8
0
 62
     0
 10
196.734
 20
29.2778
 30
0.0
 11
182.8
 21
26.8207
 31
0.0
  0
LINE
  8
0
 62
     0
 10
67.5488
 20
15.3693
 30
0.0
 11
81.4836
 21
12.9109
 31
0.0
  0
LINE
  8
0
 62
     0
 10
81.4836
 20
12.9109
 30
0.0
 11
83.9403
 21
26.847
 31
0.0
  0
LINE
  8
0
 62
     0
 10
83.9403
 20
26.847
 30
0.0
 11
70.0056
 21
29.304
 31
0.0
  0
LINE
  8
0
 62
     0
 10
70.0056
 20
29.304
 30
0.0
 11
67.5488
 21
15.3693
 31
0.0
  0
LINE
  8
0
 62
     0
 10
48.7881
 20
18.6779
 30
0.0
 11
62.7228
 21
16.2195
 31
0.0
  0
LINE
  8
0
 62
     0
 10
62.7228
 20
16.2195
 30
0.0
 11
65.1799
 21
30.1542
 31
0.0
  0
LINE
  8
0
 62
     0
 10
65.1799
 20
30.1542
 30
0.0
 11
51.2452
 21
32.6126
 31
0.0
  0
LINE
  8
0
 62
     0
 10
51.2452
 20
32.6126
 30
0.0
 11
48.7881
 21
18.6779
 31
0.0
  0
LINE
  8
0
 62
     0
 10
30.0275
 20
21.9852
 30
0.0
 11
43.9621
 21
19.5268
 31
0.0
  0
LINE
  8
0
 62
     0
 10
43.9621
 20
19.5268
 30
0.0
 11
46.4192
 21
33.4629
 31
0.0
  0
LINE
  8
0
 62
     0
 10
46.4192
 20
33.4629
 30
0.0
 11
32.4845
 21
35.9198
 31
0.0
  0
LINE
  8
0
 62
     0
 10
32.4845
 20
35.9198
 30
0.0
 11
30.0275
 21
21.9852
 31
0.0
  0
LINE
  8
0
 62
     0
 10
259.644
 20
35.8069
 30
0.0
 11
273.794
 21
35.8069
 31
0.0
  0
LINE
  8
0
 62
     0
 10
273.794
 20
35.8069
 30
0.0
 11
273.794
 21
21.6572
 31
0.0
  0
LINE
  8
0
 62
     0
 10
273.794
 20
21.6572
 30
0.0
 11
259.644
 21
21.6572
 31
0.0
  0
LINE
  8
0
 62
     0
 10
259.644
 20
21.6572
 30
0.0
 11
259.644
 21
35.8069
 31
0.0
  0
LINE
  8
0
 62
     0
 10
1.88654
 20
26.9475
 30
0.0
 11
15.8213
 21
24.4891
 31
0.0
  0
LINE
  8
0
 62
     0
 10
15.8213
 20
24.4891
 30
0.0
 11
18.2783
 21
38.4238
 31
0.0
  0
LINE
  8
0
 62
     0
 10
18.2783
 20
38.4238
 30
0.0
 11
4.34358
 21
40.8824
 31
0.0
  0
LINE
  8
0
 62
     0
 10
4.34358
 20
40.8824
 30
0.0
 11
1.88654
 21
26.9475
 31
0.0
  0
LINE
  8
0
 62
     0
 10
151.351
 20
40.6206
 30
0.0
 11
153.808
 21
26.6843
 31
0.0
  0
LINE
  8
0
 62
     0
 10
153.808
 20
26.6843
 30
0.0
 11
167.743
 21
29.1414
 31
0.0
  0
LINE
  8
0
 62
     0
 10
167.743
 20
29.1414
 30
0.0
 11
165.286
 21
43.0759
 31
0.0
  0
LINE
  8
0
 62
     0
 10
165.286
 20
43.0759
 30
0.0
 11
151.351
 21
40.6206
 31
0.0
  0
LINE
  8
0
 62
     0
 10
98.9969
 20
29.1676
 30
0.0
 11
112.933
 21
26.7105
 31
0.0
  0
LINE
  8
0
 62
     0
 10
112.933
 20
26.7105
 30
0.0
 11
115.39
 21
40.6453
 31
0.0
  0
LINE
  8
0
 62
     0
 10
115.39
 20
40.6453
 30
0.0
 11
101.454
 21
43.1024
 31
0.0
  0
LINE
  8
0
 62
     0
 10
101.454
 20
43.1024
 30
0.0
 11
98.9969
 21
29.1676
 31
0.0
  0
LINE
  8
0
 62
     0
 10
170.112
 20
43.9279
 30
0.0
 11
172.569
 21
29.993
 31
0.0
  0
LINE
  8
0
 62
     0
 10
172.569
 20
29.993
 30
0.0
 11
186.504
 21
32.4501
 31
0.0
  0
LINE
  8
0
 62
     0
 10
186.504
 20
32.4501
 30
0.0
 11
184.047
 21
46.3846
 31
0.0
  0
LINE
  8
0
 62
     0
 10
184.047
 20
46.3846
 30
0.0
 11
170.112
 21
43.9279
 31
0.0
  0
LINE
  8
0
 62
     0
 10
80.2361
 20
32.4749
 30
0.0
 11
94.1709
 21
30.0178
 31
0.0
  0
LINE
  8
0
 62
     0
 10
94.1709
 20
30.0178
 30
0.0
 11
96.628
 21
43.954
 31
0.0
  0
LINE
  8
0
 62
     0
 10
96.628
 20
43.954
 30
0.0
 11
82.6932
 21
46.4111
 31
0.0
  0
LINE
  8
0
 62
     0
 10
82.6932
 20
46.4111
 30
0.0
 11
80.2361
 21
32.4749
 31
0.0
  0
LINE
  8
0
 62
     0
 10
188.873
 20
47.2352
 30
0.0
 11
191.33
 21
33.3003
 31
0.0
  0
LINE
  8
0
 62
     0
 10
191.33
 20
33.3003
 30
0.0
 11
205.264
 21
35.7572
 31
0.0
  0
LINE
  8
0
 62
     0
 10
205.264
 20
35.7572
 30
0.0
 11
202.807
 21
49.6919
 31
0.0
  0
LINE
  8
0
 62
     0
 10
202.807
 20
49.6919
 30
0.0
 11
188.873
 21
47.2352
 31
0.0
  0
LINE
  8
0
 62
     0
 10
61.4758
 20
35.7837
 30
0.0
 11
75.4105
 21
33.3265
 31
0.0
  0
LINE
  8
0
 62
     0
 10
75.4105
 20
33.3265
 30
0.0
 11
77.8686
 21
47.2613
 31
0.0
  0
LINE
  8
0
 62
     0
 10
77.8686
 20
47.2613
 30
0.0
 11
63.9339
 21
49.7184
 31
0.0
  0
LINE
  8
0
 62
     0
 10
63.9339
 20
49.7184
 30
0.0
 11
61.4758
 21
35.7837
 31
0.0
  0
LINE
  8
0
 62
     0
 10
207.633
 20
50.5435
 30
0.0
 11
210.089
 21
36.6088
 31
0.0
  0
LINE
  8
0
 62
     0
 10
210.089
 20
36.6088
 30
0.0
 11
224.025
 21
39.0659
 31
0.0
  0
LINE
  8
0
 62
     0
 10
224.025
 20
39.0659
 30
0.0
 11
221.568
 21
53.0006
 31
0.0
  0
LINE
  8
0
 62
     0
 10
221.568
 20
53.0006
 30
0.0
 11
207.633
 21
50.5435
 31
0.0
  0
LINE
  8
0
 62
     0
 10
42.715
 20
39.091
 30
0.0
 11
56.6512
 21
36.6339
 31
0.0
  0
LINE
  8
0
 62
     0
 10
56.6512
 20
36.6339
 30
0.0
 11
59.1069
 21
50.57
 31
0.0
  0
LINE
  8
0
 62
     0
 10
59.1069
 20
50.57
 30
0.0
 11
45.1721
 21
53.0271
 31
0.0
  0
LINE
  8
0
 62
     0
 10
45.1721
 20
53.0271
 30
0.0
 11
42.715
 21
39.091
 31
0.0
  0
LINE
  8
0
 62
     0
 10
226.394
 20
53.8508
 30
0.0
 11
228.851
 21
39.9161
 31
0.0
  0
LINE
  8
0
 62
     0
 10
228.851
 20
39.9161
 30
0.0
 11
242.786
 21
42.3732
 31
0.0
  0
LINE
  8
0
 62
     0
 10
242.786
 20
42.3732
 30
0.0
 11
240.328
 21
56.3079
 31
0.0
  0
LINE
  8
0
 62
     0
 10
240.328
 20
56.3079
 30
0.0
 11
226.394
 21
53.8508
 31
0.0
  0
LINE
  8
0
 62
     0
 10
23.9544
 20
42.3997
 30
0.0
 11
37.889
 21
39.9426
 31
0.0
  0
LINE
  8
0
 62
     0
 10
37.889
 20
39.9426
 30
0.0
 11
40.3461
 21
53.8773
 31
0.0
  0
LINE
  8
0
 62
     0
 10
40.3461
 20
53.8773
 30
0.0
 11
26.4115
 21
56.3344
 31
0.0
  0
LINE
  8
0
 62
     0
 10
26.4115
 20
56.3344
 30
0.0
 11
23.9544
 21
42.3997
 31
0.0
  0
LINE
  8
0
 62
     0
 10
245.154
 20
57.1595
 30
0.0
 11
247.612
 21
43.2248
 31
0.0
  0
LINE
  8
0
 62
     0
 10
247.612
 20
43.2248
 30
0.0
 11
261.546
 21
45.6819
 31
0.0
  0
LINE
  8
0
 62
     0
 10
261.546
 20
45.6819
 30
0.0
 11
259.089
 21
59.6166
 31
0.0
  0
LINE
  8
0
 62
     0
 10
259.089
 20
59.6166
 30
0.0
 11
245.154
 21
57.1595
 31
0.0
  0
LINE
  8
0
 62
     0
 10
5.19384
 20
45.7069
 30
0.0
 11
19.1299
 21
43.2499
 31
0.0
  0
LINE
  8
0
 62
     0
 10
19.1299
 20
43.2499
 30
0.0
 11
21.587
 21
57.186
 31
0.0
  0
LINE
  8
0
 62
     0
 10
21.587
 20
57.186
 30
0.0
 11
7.65087
 21
59.6427
 31
0.0
  0
LINE
  8
0
 62
     0
 10
7.65087
 20
59.6427
 30
0.0
 11
5.19384
 21
45.7069
 31
0.0
  0
LINE
  8
0
 62
     0
 10
148.044
 20
59.381
 30
0.0
 11
150.501
 21
45.4448
 31
0.0
  0
LINE
  8
0
 62
     0
 10
150.501
 20
45.4448
 30
0.0
 11
164.436
 21
47.9019
 31
0.0
  0
LINE
  8
0
 62
     0
 10
164.436
 20
47.9019
 30
0.0
 11
161.979
 21
61.8381
 31
0.0
  0
LINE
  8
0
 62
     0
 10
161.979
 20
61.8381
 30
0.0
 11
148.044
 21
59.381
 31
0.0
  0
LINE
  8
0
 62
     0
 10
267.265
 20
59.6209
 30
0.0
 11
281.415
 21
59.6209
 31
0.0
  0
LINE
  8
0
 62
     0
 10
281.415
 20
59.6209
 30
0.0
 11
281.415
 21
45.4699
 31
0.0
  0
LINE
  8
0
 62
     0
 10
281.415
 20
45.4699
 30
0.0
 11
267.265
 21
45.4699
 31
0.0
  0
LINE
  8
0
 62
     0
 10
267.265
 20
45.4699
 30
0.0
 11
267.265
 21
59.6209
 31
0.0
  0
LINE
  8
0
 62
     0
 10
286.315
 20
59.6209
 30
0.0
 11
300.465
 21
59.6209
 31
0.0
  0
LINE
  8
0
 62
     0
 10
300.465
 20
59.6209
 30
0.0
 11
300.465
 21
45.4699
 31
0.0
  0
LINE
  8
0
 62
     0
 10
300.465
 20
45.4699
 30
0.0
 11
286.315
 21
45.4699
 31
0.0
  0
LINE
  8
0
 62
     0
 10
286.315
 20
45.4699
 30
0.0
 11
286.315
 21
59.6209
 31
0.0
  0
LINE
  8
0
 62
     0
 10
102.306
 20
47.928
 30
0.0
 11
116.24
 21
45.4713
 31
0.0
  0
LINE
  8
0
 62
     0
 10
116.24
 20
45.4713
 30
0.0
 11
118.697
 21
59.406
 31
0.0
  0
LINE
  8
0
 62
     0
 10
118.697
 20
59.406
 30
0.0
 11
104.763
 21
61.8628
 31
0.0
  0
LINE
  8
0
 62
     0
 10
104.763
 20
61.8628
 30
0.0
 11
102.306
 21
47.928
 31
0.0
  0
LINE
  8
0
 62
     0
 10
166.803
 20
62.6883
 30
0.0
 11
169.26
 21
48.7535
 31
0.0
  0
LINE
  8
0
 62
     0
 10
169.26
 20
48.7535
 30
0.0
 11
183.195
 21
51.2106
 31
0.0
  0
LINE
  8
0
 62
     0
 10
183.195
 20
51.2106
 30
0.0
 11
180.738
 21
65.1454
 31
0.0
  0
LINE
  8
0
 62
     0
 10
180.738
 20
65.1454
 30
0.0
 11
166.803
 21
62.6883
 31
0.0
  0
LINE
  8
0
 62
     0
 10
83.5448
 20
51.2367
 30
0.0
 11
97.4796
 21
48.7796
 31
0.0
  0
LINE
  8
0
 62
     0
 10
97.4796
 20
48.7796
 30
0.0
 11
99.9367
 21
62.7144
 31
0.0
  0
LINE
  8
0
 62
     0
 10
99.9367
 20
62.7144
 30
0.0
 11
86.0019
 21
65.1715
 31
0.0
  0
LINE
  8
0
 62
     0
 10
86.0019
 20
65.1715
 30
0.0
 11
83.5448
 21
51.2367
 31
0.0
  0
LINE
  8
0
 62
     0
 10
185.564
 20
65.997
 30
0.0
 11
188.021
 21
52.0608
 31
0.0
  0
LINE
  8
0
 62
     0
 10
188.021
 20
52.0608
 30
0.0
 11
201.957
 21
54.5179
 31
0.0
  0
LINE
  8
0
 62
     0
 10
201.957
 20
54.5179
 30
0.0
 11
199.5
 21
68.4541
 31
0.0
  0
LINE
  8
0
 62
     0
 10
199.5
 20
68.4541
 30
0.0
 11
185.564
 21
65.997
 31
0.0
  0
LINE
  8
0
 62
     0
 10
64.7831
 20
54.544
 30
0.0
 11
78.7192
 21
52.0869
 31
0.0
  0
LINE
  8
0
 62
     0
 10
78.7192
 20
52.0869
 30
0.0
 11
81.1759
 21
66.0217
 31
0.0
  0
LINE
  8
0
 62
     0
 10
81.1759
 20
66.0217
 30
0.0
 11
67.2412
 21
68.4788
 31
0.0
  0
LINE
  8
0
 62
     0
 10
67.2412
 20
68.4788
 30
0.0
 11
64.7831
 21
54.544
 31
0.0
  0
LINE
  8
0
 62
     0
 10
204.325
 20
69.3043
 30
0.0
 11
206.781
 21
55.3695
 31
0.0
  0
LINE
  8
0
 62
     0
 10
206.781
 20
55.3695
 30
0.0
 11
220.716
 21
57.8266
 31
0.0
  0
LINE
  8
0
 62
     0
 10
220.716
 20
57.8266
 30
0.0
 11
218.259
 21
71.7614
 31
0.0
  0
LINE
  8
0
 62
     0
 10
218.259
 20
71.7614
 30
0.0
 11
204.325
 21
69.3043
 31
0.0
  0
LINE
  8
0
 62
     0
 10
46.0237
 20
57.8527
 30
0.0
 11
59.9585
 21
55.3956
 31
0.0
  0
LINE
  8
0
 62
     0
 10
59.9585
 20
55.3956
 30
0.0
 11
62.4156
 21
69.3304
 31
0.0
  0
LINE
  8
0
 62
     0
 10
62.4156
 20
69.3304
 30
0.0
 11
48.4808
 21
71.7875
 31
0.0
  0
LINE
  8
0
 62
     0
 10
48.4808
 20
71.7875
 30
0.0
 11
46.0237
 21
57.8527
 31
0.0
  0
LINE
  8
0
 62
     0
 10
223.085
 20
72.613
 30
0.0
 11
225.542
 21
58.6768
 31
0.0
  0
LINE
  8
0
 62
     0
 10
225.542
 20
58.6768
 30
0.0
 11
239.477
 21
61.1339
 31
0.0
  0
LINE
  8
0
 62
     0
 10
239.477
 20
61.1339
 30
0.0
 11
237.02
 21
75.0701
 31
0.0
  0
LINE
  8
0
 62
     0
 10
237.02
 20
75.0701
 30
0.0
 11
223.085
 21
72.613
 31
0.0
  0
LINE
  8
0
 62
     0
 10
27.2631
 20
61.16
 30
0.0
 11
41.1977
 21
58.7029
 31
0.0
  0
LINE
  8
0
 62
     0
 10
41.1977
 20
58.7029
 30
0.0
 11
43.6548
 21
72.6376
 31
0.0
  0
LINE
  8
0
 62
     0
 10
43.6548
 20
72.6376
 30
0.0
 11
29.7202
 21
75.0947
 31
0.0
  0
LINE
  8
0
 62
     0
 10
29.7202
 20
75.0947
 30
0.0
 11
27.2631
 21
61.16
 31
0.0
  0
LINE
  8
0
 62
     0
 10
241.847
 20
75.9202
 30
0.0
 11
244.304
 21
61.9855
 31
0.0
  0
LINE
  8
0
 62
     0
 10
244.304
 20
61.9855
 30
0.0
 11
258.239
 21
64.4426
 31
0.0
  0
LINE
  8
0
 62
     0
 10
258.239
 20
64.4426
 30
0.0
 11
255.782
 21
78.3773
 31
0.0
  0
LINE
  8
0
 62
     0
 10
255.782
 20
78.3773
 30
0.0
 11
241.847
 21
75.9202
 31
0.0
  0
LINE
  8
0
 62
     0
 10
8.50251
 20
64.4687
 30
0.0
 11
22.4372
 21
62.0116
 31
0.0
  0
LINE
  8
0
 62
     0
 10
22.4372
 20
62.0116
 30
0.0
 11
24.8943
 21
75.9464
 31
0.0
  0
LINE
  8
0
 62
     0
 10
24.8943
 20
75.9464
 30
0.0
 11
10.9595
 21
78.4035
 31
0.0
  0
LINE
  8
0
 62
     0
 10
10.9595
 20
78.4035
 30
0.0
 11
8.50251
 21
64.4687
 31
0.0
  0
LINE
  8
0
 62
     0
 10
144.735
 20
78.1403
 30
0.0
 11
147.192
 21
64.2056
 31
0.0
  0
LINE
  8
0
 62
     0
 10
147.192
 20
64.2056
 30
0.0
 11
161.127
 21
66.6627
 31
0.0
  0
LINE
  8
0
 62
     0
 10
161.127
 20
66.6627
 30
0.0
 11
158.67
 21
80.5974
 31
0.0
  0
LINE
  8
0
 62
     0
 10
158.67
 20
80.5974
 30
0.0
 11
144.735
 21
78.1403
 31
0.0
  0
LINE
  8
0
 62
     0
 10
105.613
 20
66.6888
 30
0.0
 11
119.549
 21
64.2317
 31
0.0
  0
LINE
  8
0
 62
     0
 10
119.549
 20
64.2317
 30
0.0
 11
122.006
 21
78.1664
 31
0.0
  0
LINE
  8
0
 62
     0
 10
122.006
 20
78.1664
 30
0.0
 11
108.07
 21
80.6235
 31
0.0
  0
LINE
  8
0
 62
     0
 10
108.07
 20
80.6235
 30
0.0
 11
105.613
 21
66.6888
 31
0.0
  0
LINE
  8
0
 62
     0
 10
264.407
 20
78.6694
 30
0.0
 11
278.557
 21
78.6694
 31
0.0
  0
LINE
  8
0
 62
     0
 10
278.557
 20
78.6694
 30
0.0
 11
278.557
 21
64.5199
 31
0.0
  0
LINE
  8
0
 62
     0
 10
278.557
 20
64.5199
 30
0.0
 11
264.407
 21
64.5199
 31
0.0
  0
LINE
  8
0
 62
     0
 10
264.407
 20
64.5199
 30
0.0
 11
264.407
 21
78.6694
 31
0.0
  0
LINE
  8
0
 62
     0
 10
283.457
 20
78.6694
 30
0.0
 11
297.607
 21
78.6694
 31
0.0
  0
LINE
  8
0
 62
     0
 10
297.607
 20
78.6694
 30
0.0
 11
297.607
 21
64.5199
 31
0.0
  0
LINE
  8
0
 62
     0
 10
297.607
 20
64.5199
 30
0.0
 11
283.457
 21
64.5199
 31
0.0
  0
LINE
  8
0
 62
     0
 10
283.457
 20
64.5199
 30
0.0
 11
283.457
 21
78.6694
 31
0.0
  0
LINE
  8
0
 62
     0
 10
163.496
 20
81.449
 30
0.0
 11
165.953
 21
67.5128
 31
0.0
  0
LINE
  8
0
 62
     0
 10
165.953
 20
67.5128
 30
0.0
 11
179.888
 21
69.9699
 31
0.0
  0
LINE
  8
0
 62
     0
 10
179.888
 20
69.9699
 30
0.0
 11
177.431
 21
83.9061
 31
0.0
  0
LINE
  8
0
 62
     0
 10
177.431
 20
83.9061
 30
0.0
 11
163.496
 21
81.449
 31
0.0
  0
LINE
  8
0
 62
     0
 10
86.8521
 20
69.9961
 30
0.0
 11
100.787
 21
67.539
 31
0.0
  0
LINE
  8
0
 62
     0
 10
100.787
 20
67.539
 30
0.0
 11
103.244
 21
81.4737
 31
0.0
  0
LINE
  8
0
 62
     0
 10
103.244
 20
81.4737
 30
0.0
 11
89.3092
 21
83.9308
 31
0.0
  0
LINE
  8
0
 62
     0
 10
89.3092
 20
83.9308
 30
0.0
 11
86.8521
 21
69.9961
 31
0.0
  0
LINE
  8
0
 62
     0
 10
182.257
 20
84.7563
 30
0.0
 11
184.714
 21
70.8215
 31
0.0
  0
LINE
  8
0
 62
     0
 10
184.714
 20
70.8215
 30
0.0
 11
198.648
 21
73.2786
 31
0.0
  0
LINE
  8
0
 62
     0
 10
198.648
 20
73.2786
 30
0.0
 11
196.191
 21
87.2134
 31
0.0
  0
LINE
  8
0
 62
     0
 10
196.191
 20
87.2134
 30
0.0
 11
182.257
 21
84.7563
 31
0.0
  0
LINE
  8
0
 62
     0
 10
68.0918
 20
73.3048
 30
0.0
 11
82.0265
 21
70.8477
 31
0.0
  0
LINE
  8
0
 62
     0
 10
82.0265
 20
70.8477
 30
0.0
 11
84.4846
 21
84.7824
 31
0.0
  0
LINE
  8
0
 62
     0
 10
84.4846
 20
84.7824
 30
0.0
 11
70.5485
 21
87.2395
 31
0.0
  0
LINE
  8
0
 62
     0
 10
70.5485
 20
87.2395
 30
0.0
 11
68.0918
 21
73.3048
 31
0.0
  0
LINE
  8
0
 62
     0
 10
201.016
 20
88.065
 30
0.0
 11
203.473
 21
74.1288
 31
0.0
  0
LINE
  8
0
 62
     0
 10
203.473
 20
74.1288
 30
0.0
 11
217.409
 21
76.5859
 31
0.0
  0
LINE
  8
0
 62
     0
 10
217.409
 20
76.5859
 30
0.0
 11
214.952
 21
90.5221
 31
0.0
  0
LINE
  8
0
 62
     0
 10
214.952
 20
90.5221
 30
0.0
 11
201.016
 21
88.065
 31
0.0
  0
LINE
  8
0
 62
     0
 10
49.331
 20
76.612
 30
0.0
 11
63.2672
 21
74.1549
 31
0.0
  0
LINE
  8
0
 62
     0
 10
63.2672
 20
74.1549
 30
0.0
 11
65.7243
 21
88.0897
 31
0.0
  0
LINE
  8
0
 62
     0
 10
65.7243
 20
88.0897
 30
0.0
 11
51.7881
 21
90.5468
 31
0.0
  0
LINE
  8
0
 62
     0
 10
51.7881
 20
90.5468
 30
0.0
 11
49.331
 21
76.612
 31
0.0
  0
LINE
  8
0
 62
     0
 10
219.778
 20
91.3723
 30
0.0
 11
222.235
 21
77.4375
 31
0.0
  0
LINE
  8
0
 62
     0
 10
222.235
 20
77.4375
 30
0.0
 11
236.17
 21
79.8946
 31
0.0
  0
LINE
  8
0
 62
     0
 10
236.17
 20
79.8946
 30
0.0
 11
233.712
 21
93.8294
 31
0.0
  0
LINE
  8
0
 62
     0
 10
233.712
 20
93.8294
 30
0.0
 11
219.778
 21
91.3723
 31
0.0
  0
LINE
  8
0
 62
     0
 10
30.5704
 20
79.9207
 30
0.0
 11
44.505
 21
77.4637
 31
0.0
  0
LINE
  8
0
 62
     0
 10
44.505
 20
77.4637
 30
0.0
 11
46.9621
 21
91.3984
 31
0.0
  0
LINE
  8
0
 62
     0
 10
46.9621
 20
91.3984
 30
0.0
 11
33.0274
 21
93.8555
 31
0.0
  0
LINE
  8
0
 62
     0
 10
33.0274
 20
93.8555
 30
0.0
 11
30.5704
 21
79.9207
 31
0.0
  0
LINE
  8
0
 62
     0
 10
238.538
 20
94.681
 30
0.0
 11
240.996
 21
80.7448
 31
0.0
  0
LINE
  8
0
 62
     0
 10
240.996
 20
80.7448
 30
0.0
 11
254.93
 21
83.2019
 31
0.0
  0
LINE
  8
0
 62
     0
 10
254.93
 20
83.2019
 30
0.0
 11
252.473
 21
97.1381
 31
0.0
  0
LINE
  8
0
 62
     0
 10
252.473
 20
97.1381
 30
0.0
 11
238.538
 21
94.681
 31
0.0
  0
LINE
  8
0
 62
     0
 10
11.8112
 20
83.228
 30
0.0
 11
25.7459
 21
80.7709
 31
0.0
  0
LINE
  8
0
 62
     0
 10
25.7459
 20
80.7709
 30
0.0
 11
28.2029
 21
94.7071
 31
0.0
  0
LINE
  8
0
 62
     0
 10
28.2029
 20
94.7071
 30
0.0
 11
14.2668
 21
97.1628
 31
0.0
  0
LINE
  8
0
 62
     0
 10
14.2668
 20
97.1628
 30
0.0
 11
11.8112
 21
83.228
 31
0.0
  0
LINE
  8
0
 62
     0
 10
261.549
 20
97.7209
 30
0.0
 11
275.699
 21
97.7209
 31
0.0
  0
LINE
  8
0
 62
     0
 10
275.699
 20
97.7209
 30
0.0
 11
275.699
 21
83.5699
 31
0.0
  0
LINE
  8
0
 62
     0
 10
275.699
 20
83.5699
 30
0.0
 11
261.549
 21
83.5699
 31
0.0
  0
LINE
  8
0
 62
     0
 10
261.549
 20
83.5699
 30
0.0
 11
261.549
 21
97.7209
 31
0.0
  0
LINE
  8
0
 62
     0
 10
280.599
 20
97.7209
 30
0.0
 11
294.75
 21
97.7209
 31
0.0
  0
LINE
  8
0
 62
     0
 10
294.75
 20
97.7209
 30
0.0
 11
294.75
 21
83.5699
 31
0.0
  0
LINE
  8
0
 62
     0
 10
294.75
 20
83.5699
 30
0.0
 11
280.599
 21
83.5699
 31
0.0
  0
LINE
  8
0
 62
     0
 10
280.599
 20
83.5699
 30
0.0
 11
280.599
 21
97.7209
 31
0.0
  0
ENDSEC
  0
EOF
