M48
; DRILL file {KiCad (6.0.9-0)} date 2023 February 13, Monday 21:26:24
; FORMAT={-:-/ absolute / inch / decimal}
; #@! TF.CreationDate,2023-02-13T21:26:24+01:00
; #@! TF.GenerationSoftware,Kicad,Pcbnew,(6.0.9-0)
; #@! TF.FileFunction,Plated,1,2,PTH
FMAT,2
INCH
; #@! TA.AperFunction,Plated,PTH,ViaDrill
T1C0.0157
; #@! TA.AperFunction,Plated,PTH,ComponentDrill
T2C0.0394
; #@! TA.AperFunction,Plated,PTH,ComponentDrill
T3C0.0430
; #@! TA.AperFunction,Plated,PTH,ComponentDrill
T4C0.0866
%
G90
G05
T1
X2.378Y-3.152
X2.501Y-2.401
X2.632Y-1.658
X2.72Y-1.5
X3.2Y-2.58
X3.34Y-1.84
X3.46Y-1.62
X3.74Y-3.44
X3.94Y-2.7
X4.08Y-1.96
X4.2Y-1.76
X4.46Y-3.58
X4.68Y-2.84
X4.82Y-2.1
X4.94Y-1.88
X5.22Y-3.7
X5.42Y-2.98
X5.56Y-2.24
X5.68Y-2.02
X5.96Y-3.84
X6.16Y-3.1
X6.3Y-2.38
X6.42Y-2.14
X6.9565Y-3.0089
X6.9855Y-3.04
X7.042Y-3.638
X7.045Y-3.07
X7.262Y-3.588
X7.3573Y-3.5887
X7.5303Y-2.8557
X7.563Y-2.8907
X7.9077Y-3.0427
X7.9398Y-3.0096
X7.985Y-2.345
X8.03Y-2.485
X8.155Y-3.21
X8.62Y-3.905
X8.725Y-2.005
X8.765Y-2.345
X8.89Y-3.09
X9.37Y-3.785
X9.46Y-1.87
X9.505Y-2.22
X9.63Y-2.965
X10.2Y-1.74
X10.25Y-2.09
X10.365Y-2.84
X10.945Y-1.61
X10.985Y-1.97
X11.11Y-2.72
X11.636Y-4.152
X11.68Y-1.47
X11.73Y-1.85
X11.845Y-2.58
X12.4Y-4.165
X12.555Y-1.38
X12.555Y-1.705
X12.566Y-3.42
X12.665Y-2.47
X13.3Y-1.37
X13.3Y-1.7
X13.325Y-4.18
X13.415Y-2.455
T2
X7.3604Y-3.928
X7.4604Y-3.928
X7.5604Y-3.928
X7.6604Y-3.928
X8.02Y-3.1246
X8.02Y-3.2246
X8.02Y-3.3246
X10.5967Y-3.9176
X10.5967Y-4.016
X10.5967Y-4.1144
X11.1676Y-3.9176
X11.1676Y-4.1144
T3
X7.21Y-1.678
X7.21Y-1.778
X7.21Y-1.878
X7.21Y-1.978
X7.21Y-2.078
X7.21Y-2.178
X7.21Y-2.278
X7.21Y-2.378
X7.21Y-2.478
X7.21Y-2.578
X7.21Y-2.678
X7.21Y-2.778
X7.31Y-2.078
X7.31Y-2.778
X7.41Y-2.778
X7.51Y-2.778
X7.61Y-2.778
X7.71Y-2.078
X7.71Y-2.778
X7.81Y-1.678
X7.81Y-1.778
X7.81Y-1.878
X7.81Y-1.978
X7.81Y-2.078
X7.81Y-2.178
X7.81Y-2.278
X7.81Y-2.378
X7.81Y-2.478
X7.81Y-2.578
X7.81Y-2.678
X7.81Y-2.778
T4
X3.042Y-3.172
X3.298Y-1.696
X6.008Y-3.688
X6.256Y-2.216
X8.766Y-2.218
X9.012Y-3.688
X10.984Y-1.828
X11.228Y-3.298
X13.136Y-4.016
X13.208Y-1.568
X13.434Y-3.07
T0
M30
