%TF.GenerationSoftware,KiCad,Pcbnew,(6.0.9-0)*%
%TF.CreationDate,2023-02-13T21:26:21+01:00*%
%TF.ProjectId,pcb,7063622e-6b69-4636-9164-5f7063625858,rev?*%
%TF.SameCoordinates,Original*%
%TF.FileFunction,Paste,Bot*%
%TF.FilePolarity,Positive*%
%FSLAX46Y46*%
G04 Gerber Fmt 4.6, Leading zero omitted, Abs format (unit mm)*
G04 Created by KiCad (PCBNEW (6.0.9-0)) date 2023-02-13 21:26:21*
%MOMM*%
%LPD*%
G01*
G04 APERTURE LIST*
G04 Aperture macros list*
%AMRotRect*
0 Rectangle, with rotation*
0 The origin of the aperture is its center*
0 $1 length*
0 $2 width*
0 $3 Rotation angle, in degrees counterclockwise*
0 Add horizontal line*
21,1,$1,$2,0,0,$3*%
G04 Aperture macros list end*
%ADD10RotRect,2.550000X2.500000X10.000000*%
%ADD11R,2.550000X2.500000*%
%ADD12RotRect,2.550000X2.500000X350.000000*%
%ADD13RotRect,1.300000X1.700000X100.000000*%
%ADD14RotRect,1.300000X1.700000X80.000000*%
%ADD15R,1.700000X1.300000*%
G04 APERTURE END LIST*
D10*
%TO.C,MX40*%
X303284531Y-68517926D03*
X315574074Y-63771764D03*
%TD*%
D11*
%TO.C,MX42*%
X343638200Y-66141600D03*
X356565200Y-63601600D03*
%TD*%
%TO.C,MX53*%
X336069000Y-108966000D03*
X348996000Y-106426000D03*
%TD*%
D12*
%TO.C,MX16*%
X86387063Y-50634451D03*
X99558740Y-50377789D03*
%TD*%
%TO.C,MX32*%
X120595783Y-76054771D03*
X133767460Y-75798109D03*
%TD*%
D11*
%TO.C,MX13*%
X318898600Y-28041600D03*
X331825600Y-25501600D03*
%TD*%
D12*
%TO.C,MX15*%
X67631703Y-47322291D03*
X80803380Y-47065629D03*
%TD*%
%TO.C,MX17*%
X105142423Y-53946611D03*
X118314100Y-53689949D03*
%TD*%
D11*
%TO.C,MX52*%
X317019000Y-108966000D03*
X329946000Y-106426000D03*
%TD*%
D10*
%TO.C,MX21*%
X206154931Y-66333526D03*
X218444474Y-61587364D03*
%TD*%
D12*
%TO.C,MX1*%
X70933703Y-28526291D03*
X84105380Y-28269629D03*
%TD*%
%TO.C,MX47*%
X145457302Y-99747890D03*
X158628979Y-99491228D03*
%TD*%
D11*
%TO.C,MX28*%
X340793400Y-47091600D03*
X353720400Y-44551600D03*
%TD*%
D10*
%TO.C,MX8*%
X221659091Y-44225366D03*
X233948634Y-39479204D03*
%TD*%
D12*
%TO.C,MX20*%
X161408503Y-63883091D03*
X174580180Y-63626429D03*
%TD*%
D11*
%TO.C,MX51*%
X297969000Y-108966000D03*
X310896000Y-106426000D03*
%TD*%
D12*
%TO.C,MX5*%
X145914503Y-41734291D03*
X159086180Y-41477629D03*
%TD*%
D10*
%TO.C,MX39*%
X284529171Y-71830086D03*
X296818714Y-67083924D03*
%TD*%
D11*
%TO.C,MX41*%
X324639000Y-66141600D03*
X337566000Y-63601600D03*
%TD*%
D12*
%TO.C,MX29*%
X64329703Y-66118291D03*
X77501380Y-65861629D03*
%TD*%
D11*
%TO.C,MX14*%
X337948600Y-28041600D03*
X350875600Y-25501600D03*
%TD*%
D10*
%TO.C,MX7*%
X202903731Y-47537526D03*
X215193274Y-42791364D03*
%TD*%
%TO.C,MX9*%
X240414451Y-40913206D03*
X252703994Y-36167044D03*
%TD*%
%TO.C,MX11*%
X277925171Y-34288886D03*
X290214714Y-29542724D03*
%TD*%
%TO.C,MX35*%
X209507731Y-85078726D03*
X221797274Y-80332564D03*
%TD*%
%TO.C,MX22*%
X224930611Y-63021366D03*
X237220154Y-58275204D03*
%TD*%
D12*
%TO.C,MX31*%
X101840423Y-72742611D03*
X115012100Y-72485949D03*
%TD*%
D10*
%TO.C,MX26*%
X300033331Y-49772726D03*
X312322874Y-45026564D03*
%TD*%
%TO.C,MX12*%
X296680531Y-30976726D03*
X308970074Y-26230564D03*
%TD*%
%TO.C,MX48*%
X222156931Y-102147526D03*
X234446474Y-97401364D03*
%TD*%
%TO.C,MX10*%
X259169811Y-37601046D03*
X271459354Y-32854884D03*
%TD*%
%TO.C,MX23*%
X243706291Y-59709206D03*
X255995834Y-54963044D03*
%TD*%
%TO.C,MX25*%
X281257651Y-53084886D03*
X293547194Y-48338724D03*
%TD*%
D12*
%TO.C,MX44*%
X89170903Y-89791091D03*
X102342580Y-89534429D03*
%TD*%
D11*
%TO.C,MX50*%
X317019000Y-89916000D03*
X329946000Y-87376000D03*
%TD*%
D12*
%TO.C,MX34*%
X158106503Y-82679091D03*
X171278180Y-82422429D03*
%TD*%
%TO.C,MX46*%
X126695169Y-96428957D03*
X139866846Y-96172295D03*
%TD*%
%TO.C,MX2*%
X89678903Y-31828291D03*
X102850580Y-31571629D03*
%TD*%
%TO.C,MX6*%
X164659703Y-45036291D03*
X177831380Y-44779629D03*
%TD*%
D10*
%TO.C,MX37*%
X247018451Y-78454406D03*
X259307994Y-73708244D03*
%TD*%
%TO.C,MX36*%
X228263091Y-81766566D03*
X240552634Y-77020404D03*
%TD*%
D12*
%TO.C,MX19*%
X142653143Y-60570931D03*
X155824820Y-60314269D03*
%TD*%
%TO.C,MX4*%
X127169303Y-38432291D03*
X140340980Y-38175629D03*
%TD*%
D10*
%TO.C,MX38*%
X265773811Y-75142246D03*
X278063354Y-70396084D03*
%TD*%
%TO.C,MX24*%
X262481971Y-56397046D03*
X274771514Y-51650884D03*
%TD*%
D12*
%TO.C,MX3*%
X108424103Y-35130291D03*
X121595780Y-34873629D03*
%TD*%
%TO.C,MX43*%
X61027703Y-84863491D03*
X74199380Y-84606829D03*
%TD*%
%TO.C,MX45*%
X107933036Y-93110024D03*
X121104713Y-92853362D03*
%TD*%
D11*
%TO.C,MX27*%
X321743400Y-47117000D03*
X334670400Y-44577000D03*
%TD*%
D12*
%TO.C,MX30*%
X83085063Y-69430451D03*
X96256740Y-69173789D03*
%TD*%
%TO.C,MX33*%
X139351143Y-79366931D03*
X152522820Y-79110269D03*
%TD*%
D10*
%TO.C,MX49*%
X240952931Y-98845526D03*
X253242474Y-94099364D03*
%TD*%
D12*
%TO.C,MX18*%
X123897783Y-57258771D03*
X137069460Y-57002109D03*
%TD*%
D13*
%TO.C,D7*%
X217270684Y-53844214D03*
X216662916Y-50397386D03*
%TD*%
D14*
%TO.C,D15*%
X78893316Y-58162214D03*
X79501084Y-54715386D03*
%TD*%
%TO.C,D3*%
X119736516Y-45970214D03*
X120344284Y-42523386D03*
%TD*%
D15*
%TO.C,D42*%
X356819200Y-74902000D03*
X356819200Y-71402000D03*
%TD*%
D14*
%TO.C,D16*%
X97689316Y-61464214D03*
X98297084Y-58017386D03*
%TD*%
D13*
%TO.C,D23*%
X258164684Y-66036214D03*
X257556916Y-62589386D03*
%TD*%
D14*
%TO.C,D45*%
X119228516Y-103983814D03*
X119836284Y-100536986D03*
%TD*%
D13*
%TO.C,D38*%
X280161084Y-81530214D03*
X279553316Y-78083386D03*
%TD*%
%TO.C,D39*%
X298906284Y-78177414D03*
X298298516Y-74730586D03*
%TD*%
%TO.C,D24*%
X276909884Y-62734214D03*
X276302116Y-59287386D03*
%TD*%
%TO.C,D35*%
X223874684Y-91385414D03*
X223266916Y-87938586D03*
%TD*%
%TO.C,D26*%
X314400284Y-56130214D03*
X313792516Y-52683386D03*
%TD*%
D15*
%TO.C,D14*%
X350977200Y-36751200D03*
X350977200Y-33251200D03*
%TD*%
%TO.C,D13*%
X331927200Y-36751200D03*
X331927200Y-33251200D03*
%TD*%
%TO.C,D27*%
X334873600Y-55852000D03*
X334873600Y-52352000D03*
%TD*%
D14*
%TO.C,D1*%
X82246116Y-39467814D03*
X82853884Y-36020986D03*
%TD*%
D15*
%TO.C,D50*%
X330098400Y-98676400D03*
X330098400Y-95176400D03*
%TD*%
D13*
%TO.C,D25*%
X295655084Y-59432214D03*
X295047316Y-55985386D03*
%TD*%
D14*
%TO.C,D29*%
X75591316Y-76958214D03*
X76199084Y-73511386D03*
%TD*%
%TO.C,D4*%
X138481716Y-49272214D03*
X139089484Y-45825386D03*
%TD*%
D15*
%TO.C,D52*%
X330047600Y-117777200D03*
X330047600Y-114277200D03*
%TD*%
D14*
%TO.C,D47*%
X156718916Y-110587814D03*
X157326684Y-107140986D03*
%TD*%
D13*
%TO.C,D8*%
X236015884Y-50593014D03*
X235408116Y-47146186D03*
%TD*%
%TO.C,D10*%
X273557084Y-43938214D03*
X272949316Y-40491386D03*
%TD*%
D14*
%TO.C,D31*%
X113132516Y-83562214D03*
X113740284Y-80115386D03*
%TD*%
%TO.C,D18*%
X135179716Y-68068214D03*
X135787484Y-64621386D03*
%TD*%
D15*
%TO.C,D54*%
X286816800Y-108379200D03*
X286816800Y-104879200D03*
%TD*%
D13*
%TO.C,D37*%
X261415884Y-84832214D03*
X260808116Y-81385386D03*
%TD*%
D14*
%TO.C,D20*%
X172720916Y-74723014D03*
X173328684Y-71276186D03*
%TD*%
%TO.C,D5*%
X157277716Y-52574214D03*
X157885484Y-49127386D03*
%TD*%
D13*
%TO.C,D36*%
X242670684Y-88134214D03*
X242062916Y-84687386D03*
%TD*%
D14*
%TO.C,D32*%
X131877716Y-86915014D03*
X132485484Y-83468186D03*
%TD*%
D13*
%TO.C,D40*%
X317702284Y-74875414D03*
X317094516Y-71428586D03*
%TD*%
%TO.C,D9*%
X254811884Y-47240214D03*
X254204116Y-43793386D03*
%TD*%
D14*
%TO.C,D19*%
X153975716Y-71421014D03*
X154583484Y-67974186D03*
%TD*%
D15*
%TO.C,D41*%
X337718400Y-74851200D03*
X337718400Y-71351200D03*
%TD*%
D14*
%TO.C,D34*%
X169418916Y-93519014D03*
X170026684Y-90072186D03*
%TD*%
D13*
%TO.C,D21*%
X220623484Y-72640214D03*
X220015716Y-69193386D03*
%TD*%
D14*
%TO.C,D2*%
X100940516Y-42668214D03*
X101548284Y-39221386D03*
%TD*%
D13*
%TO.C,D49*%
X255319884Y-105203014D03*
X254712116Y-101756186D03*
%TD*%
%TO.C,D48*%
X236574684Y-108555814D03*
X235966916Y-105108986D03*
%TD*%
%TO.C,D22*%
X239419484Y-69338214D03*
X238811716Y-65891386D03*
%TD*%
D14*
%TO.C,D43*%
X72289316Y-95703414D03*
X72897084Y-92256586D03*
%TD*%
%TO.C,D17*%
X116434516Y-64766214D03*
X117042284Y-61319386D03*
%TD*%
%TO.C,D33*%
X150673716Y-90267814D03*
X151281484Y-86820986D03*
%TD*%
D13*
%TO.C,D12*%
X311098284Y-37334214D03*
X310490516Y-33887386D03*
%TD*%
D15*
%TO.C,D28*%
X353872800Y-55801200D03*
X353872800Y-52301200D03*
%TD*%
D14*
%TO.C,D6*%
X175972116Y-55927014D03*
X176579884Y-52480186D03*
%TD*%
D15*
%TO.C,D51*%
X310997600Y-117726400D03*
X310997600Y-114226400D03*
%TD*%
%TO.C,D53*%
X349097600Y-117675600D03*
X349097600Y-114175600D03*
%TD*%
D14*
%TO.C,D30*%
X94336516Y-80260214D03*
X94944284Y-76813386D03*
%TD*%
%TO.C,D44*%
X100483316Y-100681814D03*
X101091084Y-97234986D03*
%TD*%
%TO.C,D46*%
X137973716Y-107285814D03*
X138581484Y-103838986D03*
%TD*%
D13*
%TO.C,D11*%
X292302284Y-40636214D03*
X291694516Y-37189386D03*
%TD*%
M02*
