M48
; DRILL file {KiCad (6.0.9-0)} date 2023 February 13, Monday 21:26:24
; FORMAT={-:-/ absolute / inch / decimal}
; #@! TF.CreationDate,2023-02-13T21:26:24+01:00
; #@! TF.GenerationSoftware,Kicad,Pcbnew,(6.0.9-0)
; #@! TF.FileFunction,NonPlated,1,2,NPTH
FMAT,2
INCH
; #@! TA.AperFunction,NonPlated,NPTH,ComponentDrill
T1C0.0591
; #@! TA.AperFunction,NonPlated,NPTH,ComponentDrill
T2C0.0689
; #@! TA.AperFunction,NonPlated,NPTH,ComponentDrill
T3C0.1181
; #@! TA.AperFunction,NonPlated,NPTH,ComponentDrill
T4C0.1570
%
G90
G05
T2
X2.463Y-3.4533
X2.593Y-2.7153
X2.723Y-1.9753
X2.853Y-1.2353
X2.857Y-3.5227
X2.987Y-2.7847
X3.117Y-2.0447
X3.247Y-1.3047
X3.3314Y-2.8457
X3.4614Y-2.1057
X3.571Y-3.6473
X3.591Y-1.3653
X3.7254Y-2.9151
X3.8554Y-2.1751
X3.965Y-3.7167
X3.985Y-1.4347
X4.0698Y-2.9761
X4.1998Y-2.2361
X4.3097Y-3.7779
X4.329Y-1.4953
X4.4638Y-3.0455
X4.5938Y-2.3055
X4.7036Y-3.8474
X4.723Y-1.5647
X4.8082Y-3.1065
X4.9382Y-2.3665
X5.0484Y-3.9086
X5.067Y-1.6253
X5.2022Y-3.1759
X5.3322Y-2.4359
X5.4423Y-3.9781
X5.461Y-1.6947
X5.5466Y-3.2369
X5.6766Y-2.4969
X5.787Y-4.0393
X5.805Y-1.7553
X5.9406Y-3.3063
X6.0706Y-2.5663
X6.181Y-4.1087
X6.199Y-1.8247
X6.285Y-3.3673
X6.415Y-2.6273
X6.543Y-1.8853
X6.679Y-3.4367
X6.809Y-2.6967
X6.937Y-1.9547
X8.0834Y-1.9563
X8.2114Y-2.6963
X8.3434Y-3.4343
X8.4774Y-1.8869
X8.6054Y-2.6269
X8.7374Y-3.3649
X8.8218Y-1.8259
X8.8414Y-4.1063
X8.9506Y-2.5659
X9.0818Y-3.3039
X9.2158Y-1.7565
X9.2354Y-4.0369
X9.3446Y-2.4965
X9.4758Y-3.2345
X9.5602Y-1.6955
X9.5814Y-3.9763
X9.6898Y-2.4355
X9.8202Y-3.1735
X9.9542Y-1.6261
X9.9754Y-3.9069
X10.0838Y-2.3661
X10.2142Y-3.1041
X10.2986Y-1.5651
X10.429Y-2.3051
X10.5586Y-3.0431
X10.6926Y-1.4957
X10.823Y-2.2357
X10.9526Y-2.9737
X11.037Y-1.4347
X11.1682Y-2.1747
X11.297Y-2.9127
X11.431Y-1.3653
X11.5622Y-2.1053
X11.691Y-2.8433
X11.7754Y-1.3043
X11.81Y-4.39
X11.9074Y-2.0443
X12.0354Y-2.7823
X12.1694Y-1.2349
X12.21Y-4.39
X12.3014Y-1.9749
X12.4294Y-2.7129
X12.56Y-3.64
X12.56Y-4.39
X12.634Y-1.204
X12.746Y-1.955
X12.86Y-2.704
X12.96Y-3.64
X12.96Y-4.39
X13.034Y-1.204
X13.146Y-1.955
X13.26Y-2.704
X13.31Y-4.39
X13.384Y-1.204
X13.496Y-1.954
X13.608Y-2.704
X13.71Y-4.39
X13.784Y-1.204
X13.896Y-1.954
X14.008Y-2.704
T3
X2.5296Y-3.3635
X2.6596Y-2.6255
X2.7896Y-1.8855
X2.7932Y-3.3084
X2.9196Y-1.1455
X2.9232Y-2.5704
X3.0532Y-1.8304
X3.1832Y-1.0904
X3.398Y-2.7559
X3.528Y-2.0159
X3.6376Y-3.5575
X3.6576Y-1.2755
X3.6616Y-2.7008
X3.7916Y-1.9608
X3.9012Y-3.5024
X3.9212Y-1.2204
X4.1364Y-2.8863
X4.2664Y-2.1463
X4.3763Y-3.6881
X4.3956Y-1.4055
X4.4Y-2.8312
X4.53Y-2.0912
X4.6399Y-3.6331
X4.6592Y-1.3504
X4.8748Y-3.0167
X5.0048Y-2.2767
X5.115Y-3.8188
X5.1336Y-1.5355
X5.1384Y-2.9616
X5.2684Y-2.2216
X5.3785Y-3.7637
X5.3972Y-1.4804
X5.6132Y-3.1471
X5.7432Y-2.4071
X5.8536Y-3.9495
X5.8716Y-1.6655
X5.8768Y-3.092
X6.0068Y-2.352
X6.1172Y-3.8944
X6.1352Y-1.6104
X6.3516Y-3.2775
X6.4816Y-2.5375
X6.6096Y-1.7955
X6.6152Y-3.2224
X6.7452Y-2.4824
X6.8732Y-1.7404
X8.1153Y-1.8492
X8.2433Y-2.5892
X8.3442Y-1.7073
X8.3753Y-3.3272
X8.4722Y-2.4473
X8.6042Y-3.1853
X8.8537Y-1.7188
X8.8733Y-3.9992
X8.9825Y-2.4588
X9.0826Y-1.5769
X9.1022Y-3.8573
X9.1137Y-3.1968
X9.2114Y-2.3169
X9.3426Y-3.0549
X9.5921Y-1.5884
X9.6133Y-3.8692
X9.7217Y-2.3284
X9.821Y-1.4465
X9.8422Y-3.7273
X9.8521Y-3.0664
X9.9506Y-2.1865
X10.081Y-2.9245
X10.3305Y-1.458
X10.4609Y-2.198
X10.5594Y-1.3161
X10.5905Y-2.936
X10.6898Y-2.0561
X10.8194Y-2.7941
X11.0689Y-1.3276
X11.2001Y-2.0676
X11.2978Y-1.1857
X11.3289Y-2.8056
X11.429Y-1.9257
X11.5578Y-2.6637
X11.8073Y-1.1972
X11.86Y-4.29
X11.9393Y-1.9372
X12.0362Y-1.0553
X12.0673Y-2.6752
X12.11Y-4.19
X12.1682Y-1.7953
X12.2962Y-2.5333
X12.61Y-3.54
X12.61Y-4.29
X12.684Y-1.104
X12.796Y-1.855
X12.86Y-3.44
X12.86Y-4.19
X12.91Y-2.604
X12.934Y-1.004
X13.046Y-1.755
X13.16Y-2.504
X13.36Y-4.29
X13.434Y-1.104
X13.546Y-1.854
X13.61Y-4.19
X13.658Y-2.604
X13.684Y-1.004
X13.796Y-1.754
X13.908Y-2.504
T4
X2.66Y-3.488
X2.79Y-2.75
X2.92Y-2.01
X3.05Y-1.27
X3.5284Y-2.8804
X3.6584Y-2.1404
X3.768Y-3.682
X3.788Y-1.4
X4.2668Y-3.0108
X4.3968Y-2.2708
X4.5067Y-3.8127
X4.526Y-1.53
X5.0052Y-3.1412
X5.1352Y-2.4012
X5.2453Y-3.9433
X5.264Y-1.66
X5.7436Y-3.2716
X5.8736Y-2.5316
X5.984Y-4.074
X6.002Y-1.79
X6.482Y-3.402
X6.612Y-2.662
X6.74Y-1.92
X8.2804Y-1.9216
X8.4084Y-2.6616
X8.5404Y-3.3996
X9.0188Y-1.7912
X9.0384Y-4.0716
X9.1476Y-2.5312
X9.2788Y-3.2692
X9.7572Y-1.6608
X9.7784Y-3.9416
X9.8868Y-2.4008
X10.0172Y-3.1388
X10.4956Y-1.5304
X10.626Y-2.2704
X10.7556Y-3.0084
X11.234Y-1.4
X11.3652Y-2.14
X11.494Y-2.878
X11.9724Y-1.2696
X12.01Y-4.39
X12.1044Y-2.0096
X12.2324Y-2.7476
X12.76Y-3.64
X12.76Y-4.39
X12.834Y-1.204
X12.946Y-1.955
X13.06Y-2.704
X13.51Y-4.39
X13.584Y-1.204
X13.696Y-1.954
X13.808Y-2.704
T1
G00X10.8664Y-3.7955
M15
G01X10.9176Y-3.7955
M16
G05
G00X10.8664Y-4.2365
M15
G01X10.9176Y-4.2365
M16
G05
T0
M30
