%TF.GenerationSoftware,KiCad,Pcbnew,(6.0.9-0)*%
%TF.CreationDate,2023-02-13T21:26:22+01:00*%
%TF.ProjectId,pcb,7063622e-6b69-4636-9164-5f7063625858,rev?*%
%TF.SameCoordinates,Original*%
%TF.FileFunction,Soldermask,Top*%
%TF.FilePolarity,Negative*%
%FSLAX46Y46*%
G04 Gerber Fmt 4.6, Leading zero omitted, Abs format (unit mm)*
G04 Created by KiCad (PCBNEW (6.0.9-0)) date 2023-02-13 21:26:22*
%MOMM*%
%LPD*%
G01*
G04 APERTURE LIST*
%ADD10C,3.000000*%
%ADD11C,1.750000*%
%ADD12C,3.987800*%
%ADD13C,4.400000*%
%ADD14C,2.600000*%
%ADD15R,1.752600X1.752600*%
%ADD16C,1.752600*%
%ADD17R,1.700000X1.700000*%
%ADD18O,1.700000X1.700000*%
%ADD19O,3.200000X2.000000*%
%ADD20R,2.000000X2.000000*%
%ADD21C,2.000000*%
G04 APERTURE END LIST*
D10*
%TO.C,MX40*%
X312322239Y-64345150D03*
D11*
X315705783Y-68906907D03*
D10*
X306509776Y-67949228D03*
D11*
X305700137Y-70671173D03*
D12*
X310702960Y-69789040D03*
%TD*%
D11*
%TO.C,MX42*%
X355803200Y-68681600D03*
X345643200Y-68681600D03*
D10*
X346913200Y-66141600D03*
D12*
X350723200Y-68681600D03*
D10*
X353263200Y-63601600D03*
%TD*%
%TO.C,MX53*%
X339344000Y-108966000D03*
D12*
X343154000Y-111506000D03*
D10*
X345694000Y-106426000D03*
D11*
X338074000Y-111506000D03*
X348234000Y-111506000D03*
%TD*%
D10*
%TO.C,MX16*%
X96306904Y-49804403D03*
X89612309Y-51203149D03*
D11*
X97926183Y-55248293D03*
D12*
X92923360Y-54366160D03*
D11*
X87920537Y-53484027D03*
%TD*%
D13*
%TO.C,H2*%
X77266800Y-80568800D03*
D14*
X77266800Y-80568800D03*
%TD*%
%TO.C,H7*%
X278993600Y-46431200D03*
D13*
X278993600Y-46431200D03*
%TD*%
D12*
%TO.C,MX32*%
X127132080Y-79786480D03*
D11*
X122129257Y-78904347D03*
X132134903Y-80668613D03*
D10*
X123821029Y-76623469D03*
X130515624Y-75224723D03*
%TD*%
D11*
%TO.C,MX13*%
X331063600Y-30581600D03*
D12*
X325983600Y-30581600D03*
D11*
X320903600Y-30581600D03*
D10*
X322173600Y-28041600D03*
X328523600Y-25501600D03*
%TD*%
D12*
%TO.C,MX15*%
X74168000Y-51054000D03*
D11*
X69165177Y-50171867D03*
D10*
X77551544Y-46492243D03*
X70856949Y-47890989D03*
D11*
X79170823Y-51936133D03*
%TD*%
%TO.C,MX17*%
X116681543Y-58560453D03*
D10*
X115062264Y-53116563D03*
D11*
X106675897Y-56796187D03*
D10*
X108367669Y-54515309D03*
D12*
X111678720Y-57678320D03*
%TD*%
D10*
%TO.C,MX52*%
X320294000Y-108966000D03*
D11*
X329184000Y-111506000D03*
D10*
X326644000Y-106426000D03*
D12*
X324104000Y-111506000D03*
D11*
X319024000Y-111506000D03*
%TD*%
%TO.C,MX21*%
X218576183Y-66722507D03*
D10*
X215192639Y-62160750D03*
X209380176Y-65764828D03*
D11*
X208570537Y-68486773D03*
D12*
X213573360Y-67604640D03*
%TD*%
%TO.C,MX1*%
X77470000Y-32258000D03*
D11*
X72467177Y-31375867D03*
D10*
X74158949Y-29094989D03*
D11*
X82472823Y-33140133D03*
D10*
X80853544Y-27696243D03*
%TD*%
D12*
%TO.C,MX47*%
X151993599Y-103479599D03*
D11*
X146990776Y-102597466D03*
X156996422Y-104361732D03*
D10*
X148682548Y-100316588D03*
X155377143Y-98917842D03*
%TD*%
%TO.C,MX28*%
X350418400Y-44551600D03*
X344068400Y-47091600D03*
D11*
X352958400Y-49631600D03*
X342798400Y-49631600D03*
D12*
X347878400Y-49631600D03*
%TD*%
D11*
%TO.C,MX8*%
X234080343Y-44614347D03*
D10*
X230696799Y-40052590D03*
D12*
X229077520Y-45496480D03*
D10*
X224884336Y-43656668D03*
D11*
X224074697Y-46378613D03*
%TD*%
D10*
%TO.C,MX20*%
X164633749Y-64451789D03*
D11*
X162941977Y-66732667D03*
D12*
X167944800Y-67614800D03*
D10*
X171328344Y-63053043D03*
D11*
X172947623Y-68496933D03*
%TD*%
%TO.C,MX51*%
X299974000Y-111506000D03*
D10*
X301244000Y-108966000D03*
D12*
X305054000Y-111506000D03*
D11*
X310134000Y-111506000D03*
D10*
X307594000Y-106426000D03*
%TD*%
D15*
%TO.C,U1*%
X183134000Y-42621200D03*
D16*
X183134000Y-45161200D03*
X183134000Y-47701200D03*
X183134000Y-50241200D03*
X183134000Y-52781200D03*
X183134000Y-55321200D03*
X183134000Y-57861200D03*
X183134000Y-60401200D03*
X183134000Y-62941200D03*
X183134000Y-65481200D03*
X183134000Y-68021200D03*
X183134000Y-70561200D03*
X185674000Y-70561200D03*
X188214000Y-70561200D03*
X190754000Y-70561200D03*
X193294000Y-70561200D03*
X195834000Y-70561200D03*
X198374000Y-70561200D03*
X198374000Y-68021200D03*
X198374000Y-65481200D03*
X198374000Y-62941200D03*
X198374000Y-60401200D03*
X198374000Y-57861200D03*
X198374000Y-55321200D03*
X198374000Y-52781200D03*
X198374000Y-50241200D03*
X198374000Y-47701200D03*
X198374000Y-45161200D03*
X198374000Y-42621200D03*
X195834000Y-52781200D03*
X185674000Y-52781200D03*
%TD*%
D11*
%TO.C,MX5*%
X147447977Y-44583867D03*
D12*
X152450800Y-45466000D03*
D10*
X149139749Y-42302989D03*
D11*
X157453623Y-46348133D03*
D10*
X155834344Y-40904243D03*
%TD*%
D12*
%TO.C,MX39*%
X291947600Y-73101200D03*
D10*
X287754416Y-71261388D03*
D11*
X286944777Y-73983333D03*
D10*
X293566879Y-67657310D03*
D11*
X296950423Y-72219067D03*
%TD*%
D10*
%TO.C,MX41*%
X334264000Y-63601600D03*
D11*
X326644000Y-68681600D03*
X336804000Y-68681600D03*
D10*
X327914000Y-66141600D03*
D12*
X331724000Y-68681600D03*
%TD*%
D11*
%TO.C,MX29*%
X75868823Y-70732133D03*
D10*
X74249544Y-65288243D03*
X67554949Y-66686989D03*
D12*
X70866000Y-69850000D03*
D11*
X65863177Y-68967867D03*
%TD*%
%TO.C,MX14*%
X339953600Y-30581600D03*
D10*
X341223600Y-28041600D03*
X347573600Y-25501600D03*
D11*
X350113600Y-30581600D03*
D12*
X345033600Y-30581600D03*
%TD*%
D10*
%TO.C,MX7*%
X206128976Y-46968828D03*
X211941439Y-43364750D03*
D12*
X210322160Y-48808640D03*
D11*
X215324983Y-47926507D03*
X205319337Y-49690773D03*
%TD*%
D13*
%TO.C,H3*%
X158902400Y-56286400D03*
D14*
X158902400Y-56286400D03*
%TD*%
D11*
%TO.C,MX9*%
X252835703Y-41302187D03*
D10*
X243639696Y-40344508D03*
X249452159Y-36740430D03*
D11*
X242830057Y-43066453D03*
D12*
X247832880Y-42184320D03*
%TD*%
D13*
%TO.C,H6*%
X228904800Y-93675200D03*
D14*
X228904800Y-93675200D03*
%TD*%
D17*
%TO.C,LED0*%
X203708000Y-79364600D03*
D18*
X203708000Y-81904600D03*
X203708000Y-84444600D03*
%TD*%
D13*
%TO.C,H9*%
X335483200Y-39827200D03*
D14*
X335483200Y-39827200D03*
%TD*%
D11*
%TO.C,MX11*%
X290346423Y-34677867D03*
D12*
X285343600Y-35560000D03*
D10*
X281150416Y-33720188D03*
X286962879Y-30116110D03*
D11*
X280340777Y-36442133D03*
%TD*%
D10*
%TO.C,MX35*%
X212732976Y-84510028D03*
D11*
X221928983Y-85467707D03*
X211923337Y-87231973D03*
D12*
X216926160Y-86349840D03*
D10*
X218545439Y-80905950D03*
%TD*%
%TO.C,MX22*%
X233968319Y-58848590D03*
D11*
X227346217Y-65174613D03*
X237351863Y-63410347D03*
D12*
X232349040Y-64292480D03*
D10*
X228155856Y-62452668D03*
%TD*%
D13*
%TO.C,H8*%
X285191200Y-83769200D03*
D14*
X285191200Y-83769200D03*
%TD*%
D11*
%TO.C,MX31*%
X103373897Y-75592187D03*
D10*
X111760264Y-71912563D03*
D12*
X108376720Y-76474320D03*
D11*
X113379543Y-77356453D03*
D10*
X105065669Y-73311309D03*
%TD*%
D11*
%TO.C,MX26*%
X302448937Y-51925973D03*
D10*
X309071039Y-45599950D03*
D12*
X307451760Y-51043840D03*
D11*
X312454583Y-50161707D03*
D10*
X303258576Y-49204028D03*
%TD*%
D11*
%TO.C,MX12*%
X309101783Y-31365707D03*
X299096137Y-33129973D03*
D12*
X304098960Y-32247840D03*
D10*
X305718239Y-26803950D03*
X299905776Y-30408028D03*
%TD*%
D12*
%TO.C,MX48*%
X229575360Y-103418640D03*
D11*
X224572537Y-104300773D03*
X234578183Y-102536507D03*
D10*
X225382176Y-101578828D03*
X231194639Y-97974750D03*
%TD*%
D14*
%TO.C,H4*%
X152603200Y-93675200D03*
D13*
X152603200Y-93675200D03*
%TD*%
D12*
%TO.C,MX10*%
X266588240Y-38872160D03*
D11*
X271591063Y-37990027D03*
X261585417Y-39754293D03*
D10*
X268207519Y-33428270D03*
X262395056Y-37032348D03*
%TD*%
%TO.C,MX23*%
X246931536Y-59140508D03*
X252743999Y-55536430D03*
D11*
X246121897Y-61862453D03*
X256127543Y-60098187D03*
D12*
X251124720Y-60980320D03*
%TD*%
D11*
%TO.C,MX25*%
X293678903Y-53473867D03*
X283673257Y-55238133D03*
D10*
X290295359Y-48912110D03*
D12*
X288676080Y-54356000D03*
D10*
X284482896Y-52516188D03*
%TD*%
D11*
%TO.C,MX44*%
X100710023Y-94404933D03*
D12*
X95707200Y-93522800D03*
D10*
X99090744Y-88961043D03*
X92396149Y-90359789D03*
D11*
X90704377Y-92640667D03*
%TD*%
D14*
%TO.C,H11*%
X333654400Y-102006400D03*
D13*
X333654400Y-102006400D03*
%TD*%
D10*
%TO.C,MX50*%
X326644000Y-87376000D03*
D11*
X319024000Y-92456000D03*
X329184000Y-92456000D03*
D10*
X320294000Y-89916000D03*
D12*
X324104000Y-92456000D03*
%TD*%
D10*
%TO.C,MX34*%
X161331749Y-83247789D03*
D12*
X164642800Y-86410800D03*
D10*
X168026344Y-81849043D03*
D11*
X169645623Y-87292933D03*
X159639977Y-85528667D03*
%TD*%
%TO.C,MX46*%
X138234289Y-101042799D03*
D10*
X136615010Y-95598909D03*
X129920415Y-96997655D03*
D11*
X128228643Y-99278533D03*
D12*
X133231466Y-100160666D03*
%TD*%
D11*
%TO.C,MX2*%
X101218023Y-36442133D03*
D10*
X99598744Y-30998243D03*
D12*
X96215200Y-35560000D03*
D11*
X91212377Y-34677867D03*
D10*
X92904149Y-32396989D03*
%TD*%
D17*
%TO.C,OLED0*%
X186954000Y-99771200D03*
D18*
X189494000Y-99771200D03*
X192034000Y-99771200D03*
X194574000Y-99771200D03*
%TD*%
D13*
%TO.C,H10*%
X341223600Y-77978000D03*
D14*
X341223600Y-77978000D03*
%TD*%
D11*
%TO.C,MX6*%
X176198823Y-49650133D03*
D10*
X174579544Y-44206243D03*
D11*
X166193177Y-47885867D03*
D10*
X167884949Y-45604989D03*
D12*
X171196000Y-48768000D03*
%TD*%
D10*
%TO.C,MX37*%
X256056159Y-74281630D03*
X250243696Y-77885708D03*
D11*
X259439703Y-78843387D03*
X249434057Y-80607653D03*
D12*
X254436880Y-79725520D03*
%TD*%
D11*
%TO.C,MX36*%
X240684343Y-82155547D03*
D10*
X231488336Y-81197868D03*
X237300799Y-77593790D03*
D11*
X230678697Y-83919813D03*
D12*
X235681520Y-83037680D03*
%TD*%
D10*
%TO.C,MX19*%
X145878389Y-61139629D03*
X152572984Y-59740883D03*
D12*
X149189440Y-64302640D03*
D11*
X154192263Y-65184773D03*
X144186617Y-63420507D03*
%TD*%
D10*
%TO.C,MX4*%
X137089144Y-37602243D03*
D11*
X128702777Y-41281867D03*
D10*
X130394549Y-39000989D03*
D11*
X138708423Y-43046133D03*
D12*
X133705600Y-42164000D03*
%TD*%
D11*
%TO.C,MX38*%
X278195063Y-75531227D03*
D10*
X274811519Y-70969470D03*
D12*
X273192240Y-76413360D03*
D10*
X268999056Y-74573548D03*
D11*
X268189417Y-77295493D03*
%TD*%
D10*
%TO.C,MX24*%
X271519679Y-52224270D03*
D11*
X274903223Y-56786027D03*
D10*
X265707216Y-55828348D03*
D12*
X269900400Y-57668160D03*
D11*
X264897577Y-58550293D03*
%TD*%
%TO.C,MX3*%
X109957577Y-37979867D03*
X119963223Y-39744133D03*
D12*
X114960400Y-38862000D03*
D10*
X111649349Y-35698989D03*
X118343944Y-34300243D03*
%TD*%
D12*
%TO.C,MX43*%
X67564000Y-88595200D03*
D10*
X70947544Y-84033443D03*
D11*
X62561177Y-87713067D03*
X72566823Y-89477333D03*
D10*
X64252949Y-85432189D03*
%TD*%
D19*
%TO.C,SW1*%
X276656800Y-96406400D03*
X276656800Y-107606400D03*
D20*
X269156800Y-99506400D03*
D21*
X269156800Y-104506400D03*
X269156800Y-102006400D03*
X283656800Y-104506400D03*
X283656800Y-99506400D03*
%TD*%
D10*
%TO.C,MX45*%
X111158282Y-93678722D03*
D11*
X119472156Y-97723866D03*
X109466510Y-95959600D03*
D10*
X117852877Y-92279976D03*
D12*
X114469333Y-96841733D03*
%TD*%
D13*
%TO.C,H1*%
X83769200Y-43078400D03*
D14*
X83769200Y-43078400D03*
%TD*%
D10*
%TO.C,MX27*%
X331368400Y-44577000D03*
D12*
X328828400Y-49657000D03*
D10*
X325018400Y-47117000D03*
D11*
X323748400Y-49657000D03*
X333908400Y-49657000D03*
%TD*%
%TO.C,MX30*%
X94624183Y-74044293D03*
D12*
X89621360Y-73162160D03*
D10*
X86310309Y-69999149D03*
D11*
X84618537Y-72280027D03*
D10*
X93004904Y-68600403D03*
%TD*%
D11*
%TO.C,MX33*%
X140884617Y-82216507D03*
D10*
X142576389Y-79935629D03*
X149270984Y-78536883D03*
D12*
X145887440Y-83098640D03*
D11*
X150890263Y-83980773D03*
%TD*%
D14*
%TO.C,H5*%
X222656400Y-56337200D03*
D13*
X222656400Y-56337200D03*
%TD*%
D10*
%TO.C,MX49*%
X244178176Y-98276828D03*
X249990639Y-94672750D03*
D12*
X248371360Y-100116640D03*
D11*
X253374183Y-99234507D03*
X243368537Y-100998773D03*
%TD*%
D10*
%TO.C,MX18*%
X127123029Y-57827469D03*
D11*
X135436903Y-61872613D03*
D10*
X133817624Y-56428723D03*
D12*
X130434080Y-60990480D03*
D11*
X125431257Y-60108347D03*
%TD*%
M02*
